<?xml version="1.0" encoding="utf-8"?>
<!-- Generator: Adobe Illustrator 16.0.0, SVG Export Plug-In . SVG Version: 6.00 Build 0)  -->
<!DOCTYPE svg PUBLIC "-//W3C//DTD SVG 1.1//EN" "http://www.w3.org/Graphics/SVG/1.1/DTD/svg11.dtd">
<svg version="1.1" id="Layer_1_1_" xmlns="http://www.w3.org/2000/svg" xmlns:xlink="http://www.w3.org/1999/xlink" x="0px" y="0px"
	 width="1500px" height="1500px" viewBox="0 0 1500 1500" enable-background="new 0 0 1500 1500" xml:space="preserve">
<path fill="#FFA414" d="M-427.461,812.177C-326.425,889.896-217.617,983.161,0,983.161c217.616,0,326.425-93.265,427.461-170.984
	c85.492-77.721,163.212-139.896,326.425-139.896c163.212,0,233.16,62.176,326.425,139.896
	c101.036,77.72,209.845,170.984,427.461,170.984c217.617,0,326.425-93.265,427.461-170.984l-108.809-69.948
	c-85.492,77.72-163.212,139.896-326.424,139.896c-163.213,0-233.161-62.177-326.426-139.896
	c-93.264-77.721-209.844-170.984-419.688-170.984c-217.617,0-326.425,93.264-427.462,170.984
	C233.16,819.948,163.212,882.125,0,882.125c-163.213,0-233.161-62.177-326.425-139.896L-427.461,812.177z"/>
</svg>
